<svg xmlns="http://www.w3.org/2000/svg" width="164" height="47.678" viewBox="0 0 164 47.678"><g transform="translate(-533.999 -46)"><g transform="translate(381.275 -174.563)"><path d="M483.236,264.9c-.965,2.5-2.508,4.356-5.1,3.531-1.89-.6-1.5-3.572-.308-6.439,1.377-3.3,3.332-3.859,4.918-3.138C484.453,259.626,484.173,262.468,483.236,264.9Zm.522-8.718c3.271,1.023,3.468,4.79,2.5,8.382-1,3.723-3.177,7.042-7.919,6.9-2.343-.069-3.8-1.845-4.511-4.1-1.747,1.626-6.566,7.56-11.837,2.437a5.326,5.326,0,0,1-1.027-1.98s-3.923,3.867-6.883,3.522c-2.133-.248-2.011-3.258-2.011-3.258a8.343,8.343,0,0,1-3.536,2.764c-2.6,1.077-4.632-.86-4.357-2.539.327-2,3.053-8.877,3.053-8.877s-2.239-.133-2.783.787-1.871,5.153-4.275,8.191c-1.787,2.26-4.971,3.759-7.51,2.987-1.537-.467-1.981-2.623-1.981-2.623s-2.564,2.9-5.8,2.682c-2.289-.149-2.833-2.174-2.416-3.846.116-.471,3.627-10.5,3.627-10.5l3.664-.05s-1.528,4.19-1.965,5.615c-.381,1.243-1.684,4.3-.974,4.922,1.509,1.328,3.771-1.016,4.727-2.542.878-1.4,3.13-8.066,3.13-8.066l3.082-.044s-2.382,6.915-2.746,8.147c-.612,2.075.746,3.576,2.728,2.247,2.139-1.434,3.2-4.372,5.145-9.074a2.615,2.615,0,0,1-1.369-1.554c-.226-1.154,1.162-3.827,2.932-3.127,1.633.644,1.381,1.717,1.118,2.1-.228.331-1.487.768-1.1,1.1.487.412,5.583-.771,5.925,1.12.207,1.143-1.127,3.87-1.607,5.537-.628,2.179-1.761,4.084-.215,4.545.8.24,3.83-1.053,5.438-5.231.435-1.131,1.617-4.373,2.212-6.03l3.073-.039s-1.569,4.667-2.014,5.966c-.752,2.2-1.811,4.524,0,4.911.911.2,3.129-.749,3.885-2.985,1.219-3.612,3.307-8.007,7.03-8.5,2.524-.337,4.12.523,4.83,1.722a3.1,3.1,0,0,1,.194.388,2.557,2.557,0,0,1,.181.822,2.339,2.339,0,0,1-2.359,2.483,2.64,2.64,0,0,1-2.608-2.483,1.7,1.7,0,0,1,.042-.584s-1.171-.116-2.785,1.8c-1.232,1.49-2.7,5.116-1.275,7.062a3.678,3.678,0,0,0,5.013.951,14.736,14.736,0,0,0,3.6-2.791c1.22-1.473,1.768-4.179,3-6.22A6.484,6.484,0,0,1,483.759,256.179Zm-23.144-2.331a1.883,1.883,0,0,1-2.444,1.361,2.243,2.243,0,0,1-1.579-2.56,1.883,1.883,0,0,1,2.444-1.363A2.243,2.243,0,0,1,460.615,253.848Zm-44.409-5.931a8.547,8.547,0,0,0,5.284-6.091c1.208-4.77-3.333-6.1-5.093-3.192C413.96,242.663,415.727,246.833,416.206,247.917Zm5.564,12.608a9.177,9.177,0,0,1-3.086,9.521c-4.42,3.394-12.131,1.885-14.258-2.356a10.288,10.288,0,0,1-.094-9.379c1.252-2.684,4.863-5.75,10.806-6.5a8.553,8.553,0,0,1-.878-1c-2.981,1.118-8.953,2.214-12.993-.619-3.88-2.722-5.232-9.077-1.024-14.269h.532a9.83,9.83,0,0,0,.7,10.65c2.127,2.855,7.262,3.774,11.731,2.485a12.291,12.291,0,0,1-1.137-4.628c-.238-4.744,2.016-8.543,5.505-9.108a5.447,5.447,0,0,1,3.79.674c1.843,1.2,3.238,4.6,1,8.882a10.641,10.641,0,0,1-5.146,4.525,6.809,6.809,0,0,0,4.806,2.781l-.217.662c-2.6-.1-6.77.045-10.014,2.449-3.817,2.828-4.56,6.1-3.357,9.285,1.637,4.336,7.706,4.69,10.2,1.249a6.119,6.119,0,0,0,.624-5.3,4.279,4.279,0,0,0-4.114-2.828,4.187,4.187,0,0,0-4.006,2.828h-.635a5.412,5.412,0,0,1,5.284-4.1A6.009,6.009,0,0,1,421.77,260.525Z" transform="translate(-170.043 -10.186)" fill="#c00018" fill-rule="evenodd"/><path d="M167.383,275.569a2,2,0,0,0-1.722-1.08,1.749,1.749,0,0,0-1.839,1.707c0,1.138,1.051,1.532,1.97,1.868.671.234,1.313.5,1.313,1.328a1.507,1.507,0,0,1-1.517,1.518,1.716,1.716,0,0,1-1.678-1.372l-.642.2a2.32,2.32,0,0,0,2.32,1.78,2.083,2.083,0,0,0,2.174-2.1c0-2.437-3.284-1.649-3.284-3.269a1.148,1.148,0,0,1,1.153-1.051,1.282,1.282,0,0,1,1.182.759Zm4.244-.467a2.644,2.644,0,0,1,2.7,2.787,2.725,2.725,0,0,1-2.656,3.021,2.918,2.918,0,0,1-.044-5.808Zm3.313-.467h-.656V275.8a3.2,3.2,0,0,0-2.627-1.313,3.234,3.234,0,0,0-3.3,3.473,3.321,3.321,0,0,0,3.327,3.56,3.018,3.018,0,0,0,2.568-1.357l.029,1.211h.656Zm5.076.467a2.771,2.771,0,0,1,2.656,2.977,2.691,2.691,0,0,1-2.627,2.831,2.609,2.609,0,0,1-2.685-2.758C177.36,276.532,178.293,275.1,180.015,275.1Zm-2.612-.467h-.656v10.682h.656v-5.107a3.139,3.139,0,0,0,2.627,1.313,3.222,3.222,0,0,0,3.3-3.458A3.325,3.325,0,0,0,180,274.489a3.018,3.018,0,0,0-2.568,1.357Zm9.687.467a2.644,2.644,0,0,1,2.7,2.787,2.725,2.725,0,0,1-2.656,3.021,2.918,2.918,0,0,1-.044-5.808Zm3.313-.467h-.657V275.8a3.2,3.2,0,0,0-2.627-1.313,3.234,3.234,0,0,0-3.3,3.473,3.321,3.321,0,0,0,3.327,3.56,3.019,3.019,0,0,0,2.569-1.357l.029,1.211h.657Zm2.537.613h1.182v-.613h-1.182v-2.408h-.657v2.408h-.744v.613h.744v6.129h.657Zm4.726-.759a3.517,3.517,0,1,0,3.546,3.517A3.509,3.509,0,0,0,197.665,274.489Zm-.044.613a2.906,2.906,0,1,1-2.8,2.919A2.867,2.867,0,0,1,197.621,275.1Zm8.14.467a2,2,0,0,0-1.722-1.08A1.749,1.749,0,0,0,202.2,276.2c0,1.138,1.051,1.532,1.97,1.868.671.234,1.313.5,1.313,1.328a1.507,1.507,0,0,1-1.518,1.518,1.716,1.716,0,0,1-1.678-1.372l-.642.2a2.32,2.32,0,0,0,2.32,1.78,2.083,2.083,0,0,0,2.175-2.1c0-2.437-3.284-1.649-3.284-3.269a1.148,1.148,0,0,1,1.153-1.051,1.282,1.282,0,0,1,1.182.759Zm-49.667-9.022a2.644,2.644,0,0,1,2.7,2.787,2.725,2.725,0,0,1-2.656,3.021,2.918,2.918,0,0,1-.044-5.808Zm3.313-.467h-.656v1.168a3.09,3.09,0,0,0-2.568-1.314,3.521,3.521,0,1,0,2.539,5.72l.029.832a4.337,4.337,0,0,1-.6,2.553,2.527,2.527,0,0,1-2.16,1.007,2.462,2.462,0,0,1-2.612-2.276h-.656a3.066,3.066,0,0,0,3.327,2.889,3.252,3.252,0,0,0,2.685-1.3,4.492,4.492,0,0,0,.671-2.86Zm2.464,0h-.657v6.742h.657v-3.444c0-.993-.087-2.831,1.386-2.831a.905.905,0,0,1,.467.131l.35-.583a1.7,1.7,0,0,0-.715-.161,1.532,1.532,0,0,0-1.459,1.022Zm5.572.467a2.644,2.644,0,0,1,2.7,2.787,2.725,2.725,0,0,1-2.656,3.021,2.918,2.918,0,0,1-.044-5.808Zm3.313-.467H170.1v1.168a3.2,3.2,0,0,0-2.627-1.314,3.234,3.234,0,0,0-3.3,3.473,3.321,3.321,0,0,0,3.327,3.561,3.019,3.019,0,0,0,2.569-1.357l.029,1.211h.657Zm2.463,0h-.657v6.742h.657v-3.327c0-1.372.277-2.948,1.97-2.948,1.474,0,1.62.992,1.62,2.2v4.071h.656V268.75c0-1.736-.481-2.816-2.218-2.816a2.209,2.209,0,0,0-2,1.2Zm8.709,6.275a2.918,2.918,0,0,1-.044-5.808,2.644,2.644,0,0,1,2.7,2.787A2.725,2.725,0,0,1,181.928,272.355Zm2.612.467h.657V260.783h-.657v6.465a3.2,3.2,0,0,0-2.627-1.314,3.235,3.235,0,0,0-3.3,3.473,3.322,3.322,0,0,0,3.327,3.561,3.018,3.018,0,0,0,2.568-1.357Zm8.315-3.313a3.274,3.274,0,0,0-3.24-3.575,3.517,3.517,0,1,0,3.021,5.21l-.555-.321a2.7,2.7,0,0,1-2.379,1.532,2.63,2.63,0,0,1-2.7-2.846ZM187,268.9a2.611,2.611,0,0,1,5.2,0Zm10.4-1.882a2,2,0,0,0-1.722-1.08,1.749,1.749,0,0,0-1.839,1.708c0,1.138,1.051,1.532,1.97,1.868.671.234,1.313.5,1.313,1.328a1.507,1.507,0,0,1-1.517,1.518,1.717,1.717,0,0,1-1.678-1.372l-.642.2a2.32,2.32,0,0,0,2.32,1.78,2.083,2.083,0,0,0,2.174-2.1c0-2.437-3.284-1.649-3.284-3.269a1.148,1.148,0,0,1,1.153-1.051,1.282,1.282,0,0,1,1.182.759Zm-29.655-3.07a2.709,2.709,0,0,1-.041-5.392,2.455,2.455,0,0,1,2.507,2.588A2.53,2.53,0,0,1,167.751,263.944Zm2.425.434h.61V253.2h-.61v6a2.967,2.967,0,0,0-2.439-1.219,3,3,0,0,0-3.062,3.225,3.084,3.084,0,0,0,3.089,3.306,2.8,2.8,0,0,0,2.385-1.26Zm4.929-6.395a3.265,3.265,0,1,0,3.292,3.265A3.258,3.258,0,0,0,175.105,257.982Zm-.041.569a2.7,2.7,0,1,1-2.6,2.71A2.662,2.662,0,0,1,175.065,258.552Zm7.558.433a1.855,1.855,0,0,0-1.6-1,1.624,1.624,0,0,0-1.707,1.585c0,1.057.976,1.422,1.829,1.734.623.217,1.219.461,1.219,1.233a1.4,1.4,0,0,1-1.409,1.409,1.594,1.594,0,0,1-1.558-1.274l-.6.19a2.154,2.154,0,0,0,2.154,1.653,1.934,1.934,0,0,0,2.019-1.951c0-2.262-3.048-1.531-3.048-3.035a1.066,1.066,0,0,1,1.07-.975,1.19,1.19,0,0,1,1.1.7Zm-18.979-8.639a2.644,2.644,0,0,1,2.7,2.787,2.725,2.725,0,0,1-2.656,3.021,2.918,2.918,0,0,1-.044-5.808Zm3.313-.467H166.3v1.167a3.2,3.2,0,0,0-2.626-1.313,3.234,3.234,0,0,0-3.3,3.473,3.321,3.321,0,0,0,3.327,3.56,3.019,3.019,0,0,0,2.568-1.357l.029,1.211h.657Zm11.056.686a3.536,3.536,0,0,0-2.349-.832,3.517,3.517,0,0,0-.014,7.033,3.72,3.72,0,0,0,2.451-.934v-.89a3.242,3.242,0,0,1-2.481,1.211,2.907,2.907,0,0,1,.015-5.808,3.11,3.11,0,0,1,2.378,1.094Zm3.967-.219a2.644,2.644,0,0,1,2.7,2.787,2.725,2.725,0,0,1-2.656,3.021,2.918,2.918,0,0,1-.044-5.808Zm3.313-.467h-.656v1.167a3.2,3.2,0,0,0-2.627-1.313,3.234,3.234,0,0,0-3.3,3.473,3.321,3.321,0,0,0,3.327,3.56,3.019,3.019,0,0,0,2.568-1.357l.029,1.211h.656Zm5.207.934a2,2,0,0,0-1.722-1.08,1.749,1.749,0,0,0-1.839,1.707c0,1.138,1.051,1.532,1.97,1.868.671.234,1.313.5,1.313,1.328a1.507,1.507,0,0,1-1.518,1.517,1.716,1.716,0,0,1-1.678-1.372l-.642.2a2.32,2.32,0,0,0,2.32,1.78,2.083,2.083,0,0,0,2.175-2.1c0-2.437-3.284-1.649-3.284-3.269a1.148,1.148,0,0,1,1.153-1.05,1.282,1.282,0,0,1,1.182.759Zm4.244-.467a2.644,2.644,0,0,1,2.7,2.787,2.725,2.725,0,0,1-2.656,3.021,2.918,2.918,0,0,1-.044-5.808Zm3.313-.467H197.4v1.167a3.2,3.2,0,0,0-2.627-1.313,3.234,3.234,0,0,0-3.3,3.473,3.321,3.321,0,0,0,3.327,3.56,3.019,3.019,0,0,0,2.568-1.357l.029,1.211h.656Z" transform="translate(0 -20.251)" fill="#161615" fill-rule="evenodd"/><rect width="0.54" height="47.678" transform="translate(217.827 220.563)" fill="#161615"/></g></g></svg>